<?xml version="1.0" encoding="UTF-8"?>
<svg id="Layer_1" data-name="Layer 1" xmlns="http://www.w3.org/2000/svg" width="19.477" height="19.476"  viewBox="0 0 19.56 19.56">
  <defs>
    <style>
      .cls-1 {
        fill: #a5adc6;
      }
    </style>
  </defs>
  <path class="cls-1" d="m17.98.36c.11.12.2.25.26.39s.09.3.09.47h0v3.67c0,.68-.55,1.22-1.22,1.22s-1.22-.55-1.22-1.22v-.71l-4.03,4.02c-.45.45-1.18.48-1.66.06l-3.48-2.99-3.48,2.99c-.51.44-1.28.38-1.72-.13s-.38-1.28.13-1.72l4.28-3.67c.46-.39,1.13-.39,1.59,0l3.42,2.93,3.22-3.22h-.71c-.68,0-1.22-.55-1.22-1.22s.55-1.22,1.22-1.22h3.67c.34,0,.64.14.86.36,0,0,0,0,0,0ZM0,11.61c0-1.01.82-1.83,1.83-1.83h15.89c1.01,0,1.83.82,1.83,1.83v6.11c0,1.01-.82,1.83-1.83,1.83H1.83c-1.01,0-1.83-.82-1.83-1.83v-6.11Zm1.83,4.28v1.83h1.83c0-1.01-.82-1.83-1.83-1.83Zm1.83-4.28h-1.83v1.83c1.01,0,1.83-.82,1.83-1.83Zm14.06,4.28c-1.01,0-1.83.82-1.83,1.83h1.83v-1.83Zm-1.83-4.28c0,1.01.82,1.83,1.83,1.83v-1.83h-1.83Zm-3.67,3.06c0-1.35-1.09-2.44-2.44-2.44s-2.44,1.09-2.44,2.44,1.09,2.44,2.44,2.44,2.44-1.09,2.44-2.44Z"/>
</svg>
